<svg xmlns="http://www.w3.org/2000/svg" viewBox="0 0 120 120" width="120" height="120">
  <defs>
    <linearGradient id="grad1" x1="0%" y1="0%" x2="100%" y2="100%">
      <stop offset="0%" style="stop-color:#FCA5A5;stop-opacity:0.2" />
      <stop offset="100%" style="stop-color:#EF4444;stop-opacity:0.05" />
    </linearGradient>
  </defs>
  <circle cx="60" cy="60" r="50" fill="url(#grad1)" stroke="#F3F4F6" stroke-width="2" stroke-dasharray="4 4" />
  <path d="M45,35 L75,35 L75,45 C75,53.28 68.28,60 60,60 C51.72,60 45,53.28 45,45 Z" fill="none" stroke="#EF4444" stroke-width="3" stroke-linecap="round" stroke-linejoin="round" />
  <path d="M60,60 L60,75 M50,75 L70,75" fill="none" stroke="#EF4444" stroke-width="3" stroke-linecap="round" />
  <path d="M45,40 L35,40 C32.24,40 30,42.24 30,45 L30,50 C30,52.76 32.24,55 35,55 L45,55" fill="none" stroke="#F87171" stroke-width="2.5" stroke-linecap="round" />
  <path d="M75,40 L85,40 C87.76,40 90,42.24 90,45 L90,50 C90,52.76 87.76,55 85,55 L75,55" fill="none" stroke="#F87171" stroke-width="2.5" stroke-linecap="round" />
  <circle cx="60" cy="90" r="8" fill="none" stroke="#9CA3AF" stroke-width="2" />
  <path d="M60,88 L60,90 M60,92 L60,92.5" stroke="#9CA3AF" stroke-width="2" stroke-linecap="round" />
</svg>
